<svg width="38" height="38" viewBox="0 0 38 38" fill="none" xmlns="http://www.w3.org/2000/svg">
<circle cx="19" cy="19" r="19" fill="#3C82F6"/>
<path fill-rule="evenodd" clip-rule="evenodd" d="M15.2326 9C15.3991 9 15.5588 9.06615 15.6766 9.18391C15.7943 9.30167 15.8605 9.46138 15.8605 9.62791V10.0465C15.8605 10.213 15.7943 10.3728 15.6766 10.4905C15.5588 10.6083 15.3991 10.6744 15.2326 10.6744C15.066 10.6744 14.9063 10.6083 14.7886 10.4905C14.6708 10.3728 14.6047 10.213 14.6047 10.0465V9.62791C14.6047 9.46138 14.6708 9.30167 14.7886 9.18391C14.9063 9.06615 15.066 9 15.2326 9ZM11.5321 10.5321C11.5904 10.4736 11.6597 10.4272 11.736 10.3956C11.8123 10.3639 11.8941 10.3476 11.9767 10.3476C12.0592 10.3476 12.141 10.3639 12.2173 10.3956C12.2936 10.4272 12.3629 10.4736 12.4212 10.5321L12.602 10.7138C12.7164 10.8322 12.7796 10.9909 12.7781 11.1555C12.7766 11.3202 12.7105 11.4776 12.594 11.594C12.4775 11.7103 12.32 11.7763 12.1554 11.7777C11.9907 11.779 11.8321 11.7156 11.7138 11.6012L11.5329 11.4204C11.4153 11.3026 11.3493 11.143 11.3493 10.9767C11.3493 10.8103 11.4153 10.6507 11.5329 10.5329M18.933 10.5329C18.9914 10.5912 19.0377 10.6605 19.0692 10.7367C19.1008 10.8129 19.1171 10.8946 19.1171 10.9771C19.1171 11.0596 19.1008 11.1412 19.0692 11.2175C19.0377 11.2937 18.9914 11.3629 18.933 11.4212L18.7522 11.602C18.6947 11.6637 18.6254 11.7132 18.5484 11.7475C18.4713 11.7819 18.3882 11.8003 18.3039 11.8018C18.2196 11.8033 18.1358 11.7878 18.0576 11.7562C17.9795 11.7246 17.9084 11.6776 17.8488 11.618C17.7892 11.5584 17.7422 11.4873 17.7106 11.4092C17.679 11.331 17.6635 11.2472 17.665 11.1629C17.6665 11.0786 17.6849 10.9955 17.7193 10.9184C17.7536 10.8414 17.8031 10.7721 17.8647 10.7146L18.0447 10.5338C18.1031 10.4754 18.1723 10.4291 18.2485 10.3976C18.3247 10.366 18.4064 10.3497 18.4889 10.3497C18.5714 10.3497 18.6531 10.366 18.7293 10.3976C18.8055 10.4291 18.8747 10.4746 18.933 10.5329ZM15.6512 12.3488C15.0482 12.347 14.4689 12.5835 14.0395 13.0069C13.8205 13.221 13.6465 13.4767 13.5279 13.7592C13.4092 14.0416 13.3484 14.3449 13.3488 14.6512C13.3488 15.3486 13.6586 15.974 14.1492 16.3959C14.3479 15.6249 14.7151 14.9076 15.2244 14.2957C15.7337 13.6838 16.3724 13.1924 17.0945 12.857C17.0532 12.8235 17.0105 12.7914 16.9664 12.7607C16.5808 12.4914 16.1215 12.3475 15.6512 12.3488ZM18.434 12.4334C18.2191 12.1646 17.9668 11.9281 17.6847 11.731C17.0885 11.3146 16.3784 11.0918 15.6512 11.093C14.7199 11.0912 13.8253 11.4564 13.1613 12.1094C12.7612 12.5013 12.4593 12.9821 12.2801 13.5127C12.1009 14.0432 12.0495 14.6086 12.13 15.1629C12.2105 15.7171 12.4207 16.2444 12.7435 16.7021C13.0663 17.1597 13.4926 17.5347 13.9876 17.7966C13.9932 18.0896 14.0211 18.3756 14.0713 18.6547C11.8167 18.73 10 20.5619 10 22.8265C10 25.138 11.8946 27 14.2162 27H22.5883C25.5696 27 28 24.6089 28 21.6444C28 19.4308 26.6446 17.537 24.719 16.7199C24.251 14.2275 22.0424 12.3488 19.3985 12.3488C19.0692 12.3494 18.7477 12.3776 18.434 12.4334ZM23.3183 16.3373C23.0259 15.5336 22.4924 14.8398 21.7908 14.3507C21.0893 13.8616 20.2538 13.601 19.3985 13.6047C17.0962 13.6047 15.2426 15.4465 15.2426 17.7045C15.2426 18.0913 15.297 18.4655 15.3975 18.8188C15.8136 18.9393 16.2037 19.1202 16.5553 19.3546C16.6277 19.3984 16.6904 19.4564 16.7398 19.525C16.7892 19.5937 16.8242 19.6716 16.8427 19.7541C16.8612 19.8366 16.8629 19.922 16.8476 20.0052C16.8323 20.0884 16.8004 20.1676 16.7537 20.2381C16.707 20.3086 16.6466 20.369 16.576 20.4156C16.5055 20.4622 16.4262 20.4941 16.343 20.5093C16.2599 20.5245 16.1745 20.5228 16.092 20.5042C16.0095 20.4856 15.9316 20.4505 15.863 20.4011C15.3748 20.0777 14.8018 19.9061 14.2162 19.908C12.5744 19.908 11.2558 21.2224 11.2558 22.8265C11.2558 24.4306 12.5744 25.7442 14.2162 25.7442H22.5883C24.8906 25.7442 26.7442 23.9023 26.7442 21.6444C26.7442 19.8553 25.5805 18.3273 23.9496 17.7698C23.5114 17.6196 23.0514 17.5432 22.5883 17.5437C22.1002 17.5437 21.6339 17.6274 21.2002 17.7781C21.044 17.8291 20.874 17.8169 20.7267 17.7439C20.5794 17.671 20.4666 17.5432 20.4124 17.3881C20.3583 17.2329 20.3672 17.0627 20.4371 16.914C20.5071 16.7653 20.6325 16.6499 20.7866 16.5927C21.5985 16.3087 22.4661 16.2211 23.3183 16.3373ZM10 14.2326C10 14.066 10.0662 13.9063 10.1839 13.7886C10.3017 13.6708 10.4614 13.6047 10.6279 13.6047H11.0465C11.213 13.6047 11.3728 13.6708 11.4905 13.7886C11.6083 13.9063 11.6744 14.066 11.6744 14.2326C11.6744 14.3991 11.6083 14.5588 11.4905 14.6766C11.3728 14.7943 11.213 14.8605 11.0465 14.8605H10.6279C10.4614 14.8605 10.3017 14.7943 10.1839 14.6766C10.0662 14.5588 10 14.3991 10 14.2326ZM12.602 16.8639C12.7196 16.9816 12.7857 17.1412 12.7857 17.3076C12.7857 17.474 12.7196 17.6336 12.602 17.7513L12.4212 17.9322C12.3028 18.0466 12.1443 18.11 11.9796 18.1086C11.815 18.1073 11.6575 18.0413 11.541 17.925C11.4245 17.8086 11.3584 17.6511 11.3569 17.4865C11.3554 17.3219 11.4186 17.1632 11.5329 17.0447L11.7138 16.8639C11.8315 16.7463 11.9911 16.6803 12.1575 16.6803C12.3239 16.6803 12.4843 16.7463 12.602 16.8639Z" fill="white"/>
</svg>
